<mxfile host="app.diagrams.net" agent="Mozilla/5.0 (Windows NT 10.0; Win64; x64) AppleWebKit/537.36 (KHTML, like Gecko) Chrome/124.0.0.0 Safari/537.36" version="24.7.12">
  <diagram name="Page-1" id="Go7rpRE74ficaxJIeiQb">
    <mxGraphModel dx="3430" dy="1060" grid="1" gridSize="10" guides="1" tooltips="1" connect="1" arrows="1" fold="1" page="1" pageScale="1" pageWidth="850" pageHeight="1100" math="0" shadow="0">
      <root>
        <mxCell id="0" />
        <mxCell id="1" parent="0" />
        <mxCell id="3-bC4bgWkevKskhTeq14-1" value="Adults" style="ellipse;whiteSpace=wrap;html=1;fillColor=#D4E1F5;" parent="1" vertex="1">
          <mxGeometry x="-550" y="2025" width="100" height="43" as="geometry" />
        </mxCell>
        <mxCell id="3-bC4bgWkevKskhTeq14-2" value="Total_Amount" style="ellipse;whiteSpace=wrap;html=1;fillColor=#D4E1F5;" parent="1" vertex="1">
          <mxGeometry x="-400" y="2143" width="80" height="50" as="geometry" />
        </mxCell>
        <mxCell id="3-bC4bgWkevKskhTeq14-3" value="&lt;font style=&quot;font-size: 11px;&quot;&gt;CheckIN_Date&lt;/font&gt;" style="ellipse;whiteSpace=wrap;html=1;fillColor=#D4E1F5;" parent="1" vertex="1">
          <mxGeometry x="-361" y="2189" width="80" height="50" as="geometry" />
        </mxCell>
        <mxCell id="3-bC4bgWkevKskhTeq14-4" value="BOOKING" style="rounded=1;whiteSpace=wrap;html=1;fillColor=#66B2FF;" parent="1" vertex="1">
          <mxGeometry x="-110" y="1921" width="120" height="60" as="geometry" />
        </mxCell>
        <mxCell id="3-bC4bgWkevKskhTeq14-5" value="&lt;span style=&quot;text-decoration-line: underline;&quot;&gt;Booking_ID&lt;/span&gt;" style="ellipse;whiteSpace=wrap;html=1;fillColor=#CC99FF;strokeColor=#6c8ebf;gradientColor=#7ea6e0;" parent="1" vertex="1">
          <mxGeometry x="-540" y="1975" width="80" height="50" as="geometry" />
        </mxCell>
        <mxCell id="3-bC4bgWkevKskhTeq14-6" style="rounded=0;orthogonalLoop=1;jettySize=auto;html=1;entryX=1;entryY=0.5;entryDx=0;entryDy=0;endArrow=none;endFill=0;fillColor=#eeeeee;strokeColor=#36393d;" parent="1" target="3-bC4bgWkevKskhTeq14-5" edge="1">
          <mxGeometry relative="1" as="geometry">
            <mxPoint x="-60" y="1980" as="sourcePoint" />
            <mxPoint x="-225" y="2046" as="targetPoint" />
          </mxGeometry>
        </mxCell>
        <mxCell id="3-bC4bgWkevKskhTeq14-7" style="rounded=0;orthogonalLoop=1;jettySize=auto;html=1;exitX=0.5;exitY=1;exitDx=0;exitDy=0;entryX=1;entryY=0;entryDx=0;entryDy=0;endArrow=none;endFill=0;fillColor=#eeeeee;strokeColor=#36393d;" parent="1" source="3-bC4bgWkevKskhTeq14-4" target="3-bC4bgWkevKskhTeq14-1" edge="1">
          <mxGeometry relative="1" as="geometry">
            <mxPoint x="-65" y="1951" as="sourcePoint" />
            <mxPoint x="-145" y="2091" as="targetPoint" />
          </mxGeometry>
        </mxCell>
        <mxCell id="3-bC4bgWkevKskhTeq14-8" style="rounded=0;orthogonalLoop=1;jettySize=auto;html=1;exitX=0.5;exitY=1;exitDx=0;exitDy=0;entryX=0.5;entryY=0;entryDx=0;entryDy=0;endArrow=none;endFill=0;fillColor=#eeeeee;strokeColor=#36393d;" parent="1" source="3-bC4bgWkevKskhTeq14-4" target="3-bC4bgWkevKskhTeq14-2" edge="1">
          <mxGeometry relative="1" as="geometry">
            <mxPoint x="-65" y="1951" as="sourcePoint" />
            <mxPoint x="-65" y="2121" as="targetPoint" />
          </mxGeometry>
        </mxCell>
        <mxCell id="3-bC4bgWkevKskhTeq14-9" style="rounded=0;orthogonalLoop=1;jettySize=auto;html=1;exitX=0.5;exitY=1;exitDx=0;exitDy=0;entryX=0.5;entryY=0;entryDx=0;entryDy=0;endArrow=none;endFill=0;fillColor=#eeeeee;strokeColor=#36393d;" parent="1" source="3-bC4bgWkevKskhTeq14-4" target="3-bC4bgWkevKskhTeq14-3" edge="1">
          <mxGeometry relative="1" as="geometry">
            <mxPoint x="-65" y="1951" as="sourcePoint" />
            <mxPoint x="15" y="2091" as="targetPoint" />
          </mxGeometry>
        </mxCell>
        <mxCell id="3-bC4bgWkevKskhTeq14-10" value="&lt;font style=&quot;font-size: 9px;&quot;&gt;CheckOUT_Date&lt;/font&gt;" style="ellipse;whiteSpace=wrap;html=1;fillColor=#D4E1F5;" parent="1" vertex="1">
          <mxGeometry x="-310" y="2235" width="80" height="50" as="geometry" />
        </mxCell>
        <mxCell id="3-bC4bgWkevKskhTeq14-11" style="rounded=0;orthogonalLoop=1;jettySize=auto;html=1;exitX=0.5;exitY=1;exitDx=0;exitDy=0;entryX=0.5;entryY=0;entryDx=0;entryDy=0;endArrow=none;endFill=0;fillColor=#eeeeee;strokeColor=#36393d;" parent="1" source="3-bC4bgWkevKskhTeq14-4" target="3-bC4bgWkevKskhTeq14-10" edge="1">
          <mxGeometry relative="1" as="geometry">
            <mxPoint x="-65" y="1951" as="sourcePoint" />
            <mxPoint x="95" y="2061" as="targetPoint" />
          </mxGeometry>
        </mxCell>
        <mxCell id="3-bC4bgWkevKskhTeq14-12" value="Country" style="ellipse;whiteSpace=wrap;html=1;fillColor=#D4E1F5;" parent="1" vertex="1">
          <mxGeometry x="690" y="1710" width="80" height="50" as="geometry" />
        </mxCell>
        <mxCell id="3-bC4bgWkevKskhTeq14-13" value="&lt;span style=&quot;text-decoration-line: underline;&quot;&gt;Hotel _ID&lt;/span&gt;" style="ellipse;whiteSpace=wrap;html=1;fillColor=#CC99FF;strokeColor=#6c8ebf;gradientColor=#7ea6e0;" parent="1" vertex="1">
          <mxGeometry x="650" y="1765" width="80" height="50" as="geometry" />
        </mxCell>
        <mxCell id="3-bC4bgWkevKskhTeq14-14" value="State&amp;nbsp;" style="ellipse;whiteSpace=wrap;html=1;fillColor=#D4E1F5;" parent="1" vertex="1">
          <mxGeometry x="810" y="1620" width="80" height="50" as="geometry" />
        </mxCell>
        <mxCell id="3-bC4bgWkevKskhTeq14-16" value="HOTEL" style="rounded=1;whiteSpace=wrap;html=1;fillColor=#66B2FF;" parent="1" vertex="1">
          <mxGeometry x="939" y="1921" width="120" height="60" as="geometry" />
        </mxCell>
        <mxCell id="3-bC4bgWkevKskhTeq14-17" style="rounded=0;orthogonalLoop=1;jettySize=auto;html=1;exitX=0.5;exitY=1;exitDx=0;exitDy=0;entryX=0.5;entryY=0;entryDx=0;entryDy=0;strokeWidth=1;endArrow=none;endFill=0;fillColor=#eeeeee;strokeColor=#36393d;" parent="1" source="3-bC4bgWkevKskhTeq14-22" target="3-bC4bgWkevKskhTeq14-16" edge="1">
          <mxGeometry relative="1" as="geometry">
            <mxPoint x="854" y="1660" as="sourcePoint" />
            <mxPoint x="554" y="1970" as="targetPoint" />
          </mxGeometry>
        </mxCell>
        <mxCell id="3-bC4bgWkevKskhTeq14-18" style="rounded=0;orthogonalLoop=1;jettySize=auto;html=1;exitX=0.5;exitY=1;exitDx=0;exitDy=0;entryX=0.5;entryY=0;entryDx=0;entryDy=0;strokeWidth=1;endArrow=none;endFill=0;fillColor=#eeeeee;strokeColor=#36393d;" parent="1" source="3-bC4bgWkevKskhTeq14-12" target="3-bC4bgWkevKskhTeq14-16" edge="1">
          <mxGeometry relative="1" as="geometry">
            <mxPoint x="864" y="1680" as="sourcePoint" />
            <mxPoint x="864" y="1820" as="targetPoint" />
          </mxGeometry>
        </mxCell>
        <mxCell id="3-bC4bgWkevKskhTeq14-19" style="rounded=0;orthogonalLoop=1;jettySize=auto;html=1;exitX=0.5;exitY=1;exitDx=0;exitDy=0;entryX=0.5;entryY=0;entryDx=0;entryDy=0;strokeWidth=1;endArrow=none;endFill=0;fillColor=#eeeeee;strokeColor=#36393d;" parent="1" source="3-bC4bgWkevKskhTeq14-13" target="3-bC4bgWkevKskhTeq14-16" edge="1">
          <mxGeometry relative="1" as="geometry">
            <mxPoint x="714" y="1750" as="sourcePoint" />
            <mxPoint x="864" y="1820" as="targetPoint" />
          </mxGeometry>
        </mxCell>
        <mxCell id="3-bC4bgWkevKskhTeq14-20" style="rounded=0;orthogonalLoop=1;jettySize=auto;html=1;exitX=0.5;exitY=1;exitDx=0;exitDy=0;entryX=0.5;entryY=0;entryDx=0;entryDy=0;strokeWidth=1;endArrow=none;endFill=0;fillColor=#eeeeee;strokeColor=#36393d;" parent="1" source="3-bC4bgWkevKskhTeq14-14" target="3-bC4bgWkevKskhTeq14-16" edge="1">
          <mxGeometry relative="1" as="geometry">
            <mxPoint x="934" y="1720" as="sourcePoint" />
            <mxPoint x="864" y="1820" as="targetPoint" />
          </mxGeometry>
        </mxCell>
        <mxCell id="3-bC4bgWkevKskhTeq14-22" value="City" style="ellipse;whiteSpace=wrap;html=1;fillColor=#D4E1F5;" parent="1" vertex="1">
          <mxGeometry x="745" y="1660" width="80" height="50" as="geometry" />
        </mxCell>
        <mxCell id="3-bC4bgWkevKskhTeq14-23" value="Description" style="ellipse;whiteSpace=wrap;html=1;fillColor=#D4E1F5;" parent="1" vertex="1">
          <mxGeometry x="899" y="1605" width="80" height="50" as="geometry" />
        </mxCell>
        <mxCell id="3-bC4bgWkevKskhTeq14-24" style="rounded=0;orthogonalLoop=1;jettySize=auto;html=1;exitX=0.5;exitY=1;exitDx=0;exitDy=0;entryX=0.5;entryY=0;entryDx=0;entryDy=0;strokeWidth=1;endArrow=none;endFill=0;fillColor=#eeeeee;strokeColor=#36393d;" parent="1" source="3-bC4bgWkevKskhTeq14-23" target="3-bC4bgWkevKskhTeq14-16" edge="1">
          <mxGeometry relative="1" as="geometry">
            <mxPoint x="1044" y="1765" as="sourcePoint" />
            <mxPoint x="864" y="1820" as="targetPoint" />
          </mxGeometry>
        </mxCell>
        <mxCell id="3-bC4bgWkevKskhTeq14-25" value="Rating" style="ellipse;whiteSpace=wrap;html=1;fillColor=#D4E1F5;" parent="1" vertex="1">
          <mxGeometry x="989" y="1590" width="80" height="50" as="geometry" />
        </mxCell>
        <mxCell id="3-bC4bgWkevKskhTeq14-26" style="rounded=0;orthogonalLoop=1;jettySize=auto;html=1;exitX=0.5;exitY=1;exitDx=0;exitDy=0;entryX=0.5;entryY=0;entryDx=0;entryDy=0;strokeWidth=1;endArrow=none;endFill=0;fillColor=#eeeeee;strokeColor=#36393d;" parent="1" source="3-bC4bgWkevKskhTeq14-25" target="3-bC4bgWkevKskhTeq14-16" edge="1">
          <mxGeometry relative="1" as="geometry">
            <mxPoint x="1104" y="1811" as="sourcePoint" />
            <mxPoint x="864" y="1945" as="targetPoint" />
          </mxGeometry>
        </mxCell>
        <mxCell id="3-bC4bgWkevKskhTeq14-27" value="&lt;font style=&quot;font-size: 10px;&quot;&gt;Room Type&lt;/font&gt;" style="ellipse;whiteSpace=wrap;html=1;fillColor=#D4E1F5;strokeColor=#000000;" parent="1" vertex="1">
          <mxGeometry x="-444" y="470" width="80" height="50" as="geometry" />
        </mxCell>
        <mxCell id="3-bC4bgWkevKskhTeq14-28" value="&lt;u&gt;Room_id&lt;/u&gt;" style="ellipse;whiteSpace=wrap;html=1;fillColor=#CC99FF;strokeColor=#000000;gradientColor=#7ea6e0;" parent="1" vertex="1">
          <mxGeometry x="-634" y="440" width="80" height="50" as="geometry" />
        </mxCell>
        <mxCell id="3-bC4bgWkevKskhTeq14-29" value="Floor Number" style="ellipse;whiteSpace=wrap;html=1;fillColor=#D4E1F5;strokeColor=#000000;" parent="1" vertex="1">
          <mxGeometry x="-524" y="440" width="80" height="50" as="geometry" />
        </mxCell>
        <mxCell id="LD0xq1waeF9O6wsrQVDz-23" style="edgeStyle=orthogonalEdgeStyle;rounded=0;orthogonalLoop=1;jettySize=auto;html=1;exitX=1;exitY=0.5;exitDx=0;exitDy=0;entryX=0;entryY=0.5;entryDx=0;entryDy=0;" parent="1" source="3-bC4bgWkevKskhTeq14-30" target="LD0xq1waeF9O6wsrQVDz-24" edge="1">
          <mxGeometry relative="1" as="geometry">
            <mxPoint x="-280" y="730" as="targetPoint" />
          </mxGeometry>
        </mxCell>
        <mxCell id="3-bC4bgWkevKskhTeq14-30" value="ROOM" style="rounded=1;whiteSpace=wrap;html=1;fillColor=#66B2FF;strokeColor=#000000;" parent="1" vertex="1">
          <mxGeometry x="-544" y="645" width="120" height="60" as="geometry" />
        </mxCell>
        <mxCell id="3-bC4bgWkevKskhTeq14-33" style="rounded=0;orthogonalLoop=1;jettySize=auto;html=1;exitX=0.5;exitY=1;exitDx=0;exitDy=0;entryX=0.5;entryY=0;entryDx=0;entryDy=0;strokeWidth=1;endArrow=none;endFill=0;fillColor=#eeeeee;strokeColor=#36393d;" parent="1" source="3-bC4bgWkevKskhTeq14-27" target="3-bC4bgWkevKskhTeq14-30" edge="1">
          <mxGeometry relative="1" as="geometry">
            <mxPoint x="-474" y="515" as="sourcePoint" />
            <mxPoint x="-474" y="655" as="targetPoint" />
          </mxGeometry>
        </mxCell>
        <mxCell id="3-bC4bgWkevKskhTeq14-34" style="rounded=0;orthogonalLoop=1;jettySize=auto;html=1;exitX=0.5;exitY=1;exitDx=0;exitDy=0;entryX=0.5;entryY=0;entryDx=0;entryDy=0;strokeWidth=1;endArrow=none;endFill=0;fillColor=#eeeeee;strokeColor=#36393d;" parent="1" source="3-bC4bgWkevKskhTeq14-28" target="3-bC4bgWkevKskhTeq14-30" edge="1">
          <mxGeometry relative="1" as="geometry">
            <mxPoint x="-624" y="585" as="sourcePoint" />
            <mxPoint x="-474" y="655" as="targetPoint" />
          </mxGeometry>
        </mxCell>
        <mxCell id="3-bC4bgWkevKskhTeq14-35" style="rounded=0;orthogonalLoop=1;jettySize=auto;html=1;exitX=0.5;exitY=1;exitDx=0;exitDy=0;entryX=0.5;entryY=0;entryDx=0;entryDy=0;strokeWidth=1;endArrow=none;endFill=0;fillColor=#eeeeee;strokeColor=#36393d;" parent="1" source="3-bC4bgWkevKskhTeq14-29" target="3-bC4bgWkevKskhTeq14-30" edge="1">
          <mxGeometry relative="1" as="geometry">
            <mxPoint x="-324" y="585" as="sourcePoint" />
            <mxPoint x="-474" y="655" as="targetPoint" />
          </mxGeometry>
        </mxCell>
        <mxCell id="3-bC4bgWkevKskhTeq14-36" value="City" style="ellipse;whiteSpace=wrap;html=1;fillColor=#D4E1F5;" parent="1" vertex="1">
          <mxGeometry x="228" y="840" width="80" height="50" as="geometry" />
        </mxCell>
        <mxCell id="3-bC4bgWkevKskhTeq14-37" value="Address" style="ellipse;whiteSpace=wrap;html=1;fillColor=#D4E1F5;" parent="1" vertex="1">
          <mxGeometry x="168" y="800" width="80" height="50" as="geometry" />
        </mxCell>
        <mxCell id="3-bC4bgWkevKskhTeq14-38" value="Birth Date" style="ellipse;whiteSpace=wrap;html=1;fillColor=#D4E1F5;" parent="1" vertex="1">
          <mxGeometry x="108" y="760" width="80" height="50" as="geometry" />
        </mxCell>
        <mxCell id="3-bC4bgWkevKskhTeq14-39" value="&lt;span style=&quot;text-decoration-line: underline;&quot;&gt;Guest_ID&lt;/span&gt;" style="ellipse;whiteSpace=wrap;html=1;fillColor=#CC99FF;strokeColor=#6c8ebf;gradientColor=#7ea6e0;" parent="1" vertex="1">
          <mxGeometry x="-361" y="935" width="80" height="50" as="geometry" />
        </mxCell>
        <mxCell id="3-bC4bgWkevKskhTeq14-40" value="Postal Code" style="ellipse;whiteSpace=wrap;html=1;fillColor=#D4E1F5;" parent="1" vertex="1">
          <mxGeometry x="278" y="885" width="80" height="50" as="geometry" />
        </mxCell>
        <mxCell id="3-bC4bgWkevKskhTeq14-41" value="Country" style="ellipse;whiteSpace=wrap;html=1;fillColor=#D4E1F5;" parent="1" vertex="1">
          <mxGeometry x="325" y="935" width="80" height="50" as="geometry" />
        </mxCell>
        <mxCell id="3-bC4bgWkevKskhTeq14-42" value="Guest" style="rounded=1;whiteSpace=wrap;html=1;fillColor=#66B2FF;" parent="1" vertex="1">
          <mxGeometry x="40" y="1112" width="120" height="60" as="geometry" />
        </mxCell>
        <mxCell id="3-bC4bgWkevKskhTeq14-43" style="rounded=0;orthogonalLoop=1;jettySize=auto;html=1;exitX=0.5;exitY=1;exitDx=0;exitDy=0;entryX=0.5;entryY=0;entryDx=0;entryDy=0;strokeWidth=1;endArrow=none;endFill=0;fillColor=#eeeeee;strokeColor=#36393d;" parent="1" target="3-bC4bgWkevKskhTeq14-42" edge="1">
          <mxGeometry relative="1" as="geometry">
            <mxPoint x="68" y="790" as="sourcePoint" />
            <mxPoint x="-247" y="1180" as="targetPoint" />
          </mxGeometry>
        </mxCell>
        <mxCell id="3-bC4bgWkevKskhTeq14-44" style="rounded=0;orthogonalLoop=1;jettySize=auto;html=1;exitX=0.5;exitY=1;exitDx=0;exitDy=0;entryX=0.5;entryY=0;entryDx=0;entryDy=0;strokeWidth=1;endArrow=none;endFill=0;fillColor=#eeeeee;strokeColor=#36393d;" parent="1" source="3-bC4bgWkevKskhTeq14-37" target="3-bC4bgWkevKskhTeq14-42" edge="1">
          <mxGeometry relative="1" as="geometry">
            <mxPoint x="63" y="890" as="sourcePoint" />
            <mxPoint x="63" y="1030" as="targetPoint" />
          </mxGeometry>
        </mxCell>
        <mxCell id="3-bC4bgWkevKskhTeq14-45" style="rounded=0;orthogonalLoop=1;jettySize=auto;html=1;exitX=0.5;exitY=1;exitDx=0;exitDy=0;entryX=0.5;entryY=0;entryDx=0;entryDy=0;strokeWidth=1;endArrow=none;endFill=0;fillColor=#eeeeee;strokeColor=#36393d;" parent="1" target="3-bC4bgWkevKskhTeq14-42" edge="1">
          <mxGeometry relative="1" as="geometry">
            <mxPoint x="147.00000000000045" y="810" as="sourcePoint" />
            <mxPoint x="63" y="1030" as="targetPoint" />
          </mxGeometry>
        </mxCell>
        <mxCell id="3-bC4bgWkevKskhTeq14-46" style="rounded=0;orthogonalLoop=1;jettySize=auto;html=1;exitX=0.5;exitY=1;exitDx=0;exitDy=0;entryX=0.5;entryY=0;entryDx=0;entryDy=0;strokeWidth=1;endArrow=none;endFill=0;fillColor=#eeeeee;strokeColor=#36393d;" parent="1" source="3-bC4bgWkevKskhTeq14-39" target="3-bC4bgWkevKskhTeq14-42" edge="1">
          <mxGeometry relative="1" as="geometry">
            <mxPoint x="-87" y="960" as="sourcePoint" />
            <mxPoint x="63" y="1030" as="targetPoint" />
          </mxGeometry>
        </mxCell>
        <mxCell id="3-bC4bgWkevKskhTeq14-47" style="rounded=0;orthogonalLoop=1;jettySize=auto;html=1;exitX=0.5;exitY=1;exitDx=0;exitDy=0;entryX=0.5;entryY=0;entryDx=0;entryDy=0;strokeWidth=1;endArrow=none;endFill=0;fillColor=#eeeeee;strokeColor=#36393d;" parent="1" source="3-bC4bgWkevKskhTeq14-36" target="3-bC4bgWkevKskhTeq14-42" edge="1">
          <mxGeometry relative="1" as="geometry">
            <mxPoint x="63" y="890" as="sourcePoint" />
            <mxPoint x="63" y="1030" as="targetPoint" />
          </mxGeometry>
        </mxCell>
        <mxCell id="3-bC4bgWkevKskhTeq14-48" style="rounded=0;orthogonalLoop=1;jettySize=auto;html=1;exitX=0.5;exitY=1;exitDx=0;exitDy=0;entryX=0.5;entryY=0;entryDx=0;entryDy=0;strokeWidth=1;endArrow=none;endFill=0;fillColor=#eeeeee;strokeColor=#36393d;" parent="1" source="3-bC4bgWkevKskhTeq14-40" target="3-bC4bgWkevKskhTeq14-42" edge="1">
          <mxGeometry relative="1" as="geometry">
            <mxPoint x="133" y="930" as="sourcePoint" />
            <mxPoint x="63" y="1030" as="targetPoint" />
          </mxGeometry>
        </mxCell>
        <mxCell id="3-bC4bgWkevKskhTeq14-49" style="rounded=0;orthogonalLoop=1;jettySize=auto;html=1;exitX=0;exitY=0.5;exitDx=0;exitDy=0;entryX=0.5;entryY=0;entryDx=0;entryDy=0;strokeWidth=1;endArrow=none;endFill=0;fillColor=#eeeeee;strokeColor=#36393d;" parent="1" target="3-bC4bgWkevKskhTeq14-42" edge="1">
          <mxGeometry relative="1" as="geometry">
            <mxPoint x="324" y="960" as="sourcePoint" />
            <mxPoint x="63" y="1030" as="targetPoint" />
          </mxGeometry>
        </mxCell>
        <mxCell id="3-bC4bgWkevKskhTeq14-50" value="User Rating" style="ellipse;whiteSpace=wrap;html=1;fillColor=#D4E1F5;" parent="1" vertex="1">
          <mxGeometry x="1078" y="1342" width="80" height="50" as="geometry" />
        </mxCell>
        <mxCell id="3-bC4bgWkevKskhTeq14-51" value="Review Text" style="ellipse;whiteSpace=wrap;html=1;fillColor=#D4E1F5;" parent="1" vertex="1">
          <mxGeometry x="938" y="1390" width="80" height="50" as="geometry" />
        </mxCell>
        <mxCell id="3-bC4bgWkevKskhTeq14-53" value="Review Title" style="ellipse;whiteSpace=wrap;html=1;fillColor=#D4E1F5;" parent="1" vertex="1">
          <mxGeometry x="1148" y="1307" width="80" height="50" as="geometry" />
        </mxCell>
        <mxCell id="3-bC4bgWkevKskhTeq14-54" value="Review" style="rounded=1;whiteSpace=wrap;html=1;fillColor=#66B2FF;" parent="1" vertex="1">
          <mxGeometry x="878" y="1112" width="120" height="60" as="geometry" />
        </mxCell>
        <mxCell id="3-bC4bgWkevKskhTeq14-55" style="rounded=0;orthogonalLoop=1;jettySize=auto;html=1;exitX=0.5;exitY=1;exitDx=0;exitDy=0;entryX=0.5;entryY=0;entryDx=0;entryDy=0;endArrow=none;endFill=0;fillColor=#eeeeee;strokeColor=#36393d;" parent="1" source="3-bC4bgWkevKskhTeq14-54" target="3-bC4bgWkevKskhTeq14-71" edge="1">
          <mxGeometry relative="1" as="geometry">
            <mxPoint x="863" y="1262" as="sourcePoint" />
            <mxPoint x="758" y="1332" as="targetPoint" />
          </mxGeometry>
        </mxCell>
        <mxCell id="3-bC4bgWkevKskhTeq14-56" style="rounded=0;orthogonalLoop=1;jettySize=auto;html=1;exitX=0.5;exitY=1;exitDx=0;exitDy=0;entryX=0.5;entryY=0;entryDx=0;entryDy=0;endArrow=none;endFill=0;fillColor=#eeeeee;strokeColor=#36393d;" parent="1" source="3-bC4bgWkevKskhTeq14-54" edge="1">
          <mxGeometry relative="1" as="geometry">
            <mxPoint x="918" y="1242" as="sourcePoint" />
            <mxPoint x="978" y="1405.0000000000005" as="targetPoint" />
          </mxGeometry>
        </mxCell>
        <mxCell id="3-bC4bgWkevKskhTeq14-57" style="rounded=0;orthogonalLoop=1;jettySize=auto;html=1;exitX=0.5;exitY=1;exitDx=0;exitDy=0;entryX=0.5;entryY=0;entryDx=0;entryDy=0;endArrow=none;endFill=0;fillColor=#eeeeee;strokeColor=#36393d;" parent="1" source="3-bC4bgWkevKskhTeq14-54" target="3-bC4bgWkevKskhTeq14-50" edge="1">
          <mxGeometry relative="1" as="geometry">
            <mxPoint x="918" y="1242" as="sourcePoint" />
            <mxPoint x="868" y="1382" as="targetPoint" />
          </mxGeometry>
        </mxCell>
        <mxCell id="3-bC4bgWkevKskhTeq14-59" style="rounded=0;orthogonalLoop=1;jettySize=auto;html=1;exitX=0.5;exitY=1;exitDx=0;exitDy=0;entryX=0.5;entryY=0;entryDx=0;entryDy=0;endArrow=none;endFill=0;fillColor=#eeeeee;strokeColor=#36393d;" parent="1" source="3-bC4bgWkevKskhTeq14-54" target="3-bC4bgWkevKskhTeq14-53" edge="1">
          <mxGeometry relative="1" as="geometry">
            <mxPoint x="918" y="1242" as="sourcePoint" />
            <mxPoint x="1038" y="1352" as="targetPoint" />
          </mxGeometry>
        </mxCell>
        <mxCell id="3-bC4bgWkevKskhTeq14-69" value="&lt;u&gt;&lt;b&gt;Guest_id&lt;/b&gt;&lt;/u&gt;" style="ellipse;whiteSpace=wrap;html=1;fillColor=#D4E1F5;" parent="1" vertex="1">
          <mxGeometry x="763" y="1362" width="80" height="50" as="geometry" />
        </mxCell>
        <mxCell id="3-bC4bgWkevKskhTeq14-70" value="" style="endArrow=none;html=1;rounded=0;entryX=0.5;entryY=1;entryDx=0;entryDy=0;exitX=0.5;exitY=0;exitDx=0;exitDy=0;" parent="1" source="3-bC4bgWkevKskhTeq14-69" target="3-bC4bgWkevKskhTeq14-54" edge="1">
          <mxGeometry width="50" height="50" relative="1" as="geometry">
            <mxPoint x="1048" y="1332" as="sourcePoint" />
            <mxPoint x="1098" y="1282" as="targetPoint" />
          </mxGeometry>
        </mxCell>
        <mxCell id="3-bC4bgWkevKskhTeq14-71" value="&lt;u&gt;&lt;b&gt;Room ID&lt;/b&gt;&lt;/u&gt;" style="ellipse;whiteSpace=wrap;html=1;fillColor=#D4E1F5;" parent="1" vertex="1">
          <mxGeometry x="688" y="1327" width="80" height="50" as="geometry" />
        </mxCell>
        <mxCell id="3-bC4bgWkevKskhTeq14-72" value="&lt;u&gt;&lt;b&gt;Hotel ID&lt;/b&gt;&lt;/u&gt;" style="ellipse;whiteSpace=wrap;html=1;fillColor=#D4E1F5;" parent="1" vertex="1">
          <mxGeometry x="643" y="1277" width="80" height="50" as="geometry" />
        </mxCell>
        <mxCell id="3-bC4bgWkevKskhTeq14-73" style="rounded=0;orthogonalLoop=1;jettySize=auto;html=1;exitX=0.5;exitY=1;exitDx=0;exitDy=0;entryX=0.5;entryY=0;entryDx=0;entryDy=0;endArrow=none;endFill=0;fillColor=#eeeeee;strokeColor=#36393d;" parent="1" source="3-bC4bgWkevKskhTeq14-54" target="3-bC4bgWkevKskhTeq14-72" edge="1">
          <mxGeometry relative="1" as="geometry">
            <mxPoint x="918" y="1242" as="sourcePoint" />
            <mxPoint x="768" y="1362" as="targetPoint" />
          </mxGeometry>
        </mxCell>
        <mxCell id="3-bC4bgWkevKskhTeq14-74" value="&lt;u&gt;&lt;b&gt;Booking_id&lt;/b&gt;&lt;/u&gt;" style="ellipse;whiteSpace=wrap;html=1;fillColor=#D4E1F5;" parent="1" vertex="1">
          <mxGeometry x="843" y="1387" width="80" height="50" as="geometry" />
        </mxCell>
        <mxCell id="3-bC4bgWkevKskhTeq14-75" value="" style="endArrow=none;html=1;rounded=0;entryX=0.5;entryY=1;entryDx=0;entryDy=0;exitX=0.5;exitY=0;exitDx=0;exitDy=0;" parent="1" source="3-bC4bgWkevKskhTeq14-74" target="3-bC4bgWkevKskhTeq14-54" edge="1">
          <mxGeometry width="50" height="50" relative="1" as="geometry">
            <mxPoint x="838" y="1397" as="sourcePoint" />
            <mxPoint x="918" y="1242" as="targetPoint" />
          </mxGeometry>
        </mxCell>
        <mxCell id="3-bC4bgWkevKskhTeq14-76" value="Hotel Rati&lt;span style=&quot;background-color: initial;&quot;&gt;ng AVG&lt;/span&gt;" style="ellipse;whiteSpace=wrap;html=1;fillColor=#D4E1F5;" parent="1" vertex="1">
          <mxGeometry x="1018" y="1387" width="80" height="50" as="geometry" />
        </mxCell>
        <mxCell id="3-bC4bgWkevKskhTeq14-77" style="rounded=0;orthogonalLoop=1;jettySize=auto;html=1;exitX=0.5;exitY=1;exitDx=0;exitDy=0;entryX=0.5;entryY=0;entryDx=0;entryDy=0;endArrow=none;endFill=0;fillColor=#eeeeee;strokeColor=#36393d;" parent="1" source="3-bC4bgWkevKskhTeq14-54" target="3-bC4bgWkevKskhTeq14-76" edge="1">
          <mxGeometry relative="1" as="geometry">
            <mxPoint x="918" y="1242" as="sourcePoint" />
            <mxPoint x="918" y="1427" as="targetPoint" />
          </mxGeometry>
        </mxCell>
        <mxCell id="3-bC4bgWkevKskhTeq14-86" value="Children" style="ellipse;whiteSpace=wrap;html=1;fillColor=#D4E1F5;" parent="1" vertex="1">
          <mxGeometry x="-150" y="2280" width="80" height="50" as="geometry" />
        </mxCell>
        <mxCell id="3-bC4bgWkevKskhTeq14-87" value="Payment Status" style="ellipse;whiteSpace=wrap;html=1;fillColor=#D4E1F5;" parent="1" vertex="1">
          <mxGeometry x="-61" y="2270" width="80" height="50" as="geometry" />
        </mxCell>
        <mxCell id="3-bC4bgWkevKskhTeq14-89" style="rounded=0;orthogonalLoop=1;jettySize=auto;html=1;exitX=0.5;exitY=1;exitDx=0;exitDy=0;entryX=0.5;entryY=0;entryDx=0;entryDy=0;endArrow=none;endFill=0;fillColor=#eeeeee;strokeColor=#36393d;" parent="1" source="3-bC4bgWkevKskhTeq14-4" target="3-bC4bgWkevKskhTeq14-95" edge="1">
          <mxGeometry relative="1" as="geometry">
            <mxPoint x="50" y="2131" as="sourcePoint" />
            <mxPoint x="-170" y="2214" as="targetPoint" />
          </mxGeometry>
        </mxCell>
        <mxCell id="3-bC4bgWkevKskhTeq14-90" style="rounded=0;orthogonalLoop=1;jettySize=auto;html=1;exitX=0.5;exitY=1;exitDx=0;exitDy=0;entryX=0.5;entryY=0;entryDx=0;entryDy=0;endArrow=none;endFill=0;fillColor=#eeeeee;strokeColor=#36393d;" parent="1" source="3-bC4bgWkevKskhTeq14-4" target="3-bC4bgWkevKskhTeq14-86" edge="1">
          <mxGeometry relative="1" as="geometry">
            <mxPoint x="50" y="2131" as="sourcePoint" />
            <mxPoint x="-45" y="2241" as="targetPoint" />
          </mxGeometry>
        </mxCell>
        <mxCell id="3-bC4bgWkevKskhTeq14-91" style="rounded=0;orthogonalLoop=1;jettySize=auto;html=1;exitX=0.5;exitY=1;exitDx=0;exitDy=0;entryX=0.5;entryY=0;entryDx=0;entryDy=0;endArrow=none;endFill=0;fillColor=#eeeeee;strokeColor=#36393d;" parent="1" source="3-bC4bgWkevKskhTeq14-4" target="3-bC4bgWkevKskhTeq14-87" edge="1">
          <mxGeometry relative="1" as="geometry">
            <mxPoint x="50" y="2131" as="sourcePoint" />
            <mxPoint x="35" y="2271" as="targetPoint" />
          </mxGeometry>
        </mxCell>
        <mxCell id="3-bC4bgWkevKskhTeq14-95" value="Total Night" style="ellipse;whiteSpace=wrap;html=1;fillColor=#D4E1F5;" parent="1" vertex="1">
          <mxGeometry x="-240" y="2264" width="80" height="50" as="geometry" />
        </mxCell>
        <mxCell id="3-bC4bgWkevKskhTeq14-96" value="&lt;font size=&quot;1&quot;&gt;Special Requests&lt;/font&gt;" style="ellipse;whiteSpace=wrap;html=1;fillColor=#D4E1F5;" parent="1" vertex="1">
          <mxGeometry x="19" y="2250" width="80" height="50" as="geometry" />
        </mxCell>
        <mxCell id="3-bC4bgWkevKskhTeq14-97" value="&lt;font style=&quot;font-size: 9px;&quot;&gt;Reservation Source&lt;/font&gt;" style="ellipse;whiteSpace=wrap;html=1;fillColor=#D4E1F5;" parent="1" vertex="1">
          <mxGeometry x="150" y="2174" width="80" height="50" as="geometry" />
        </mxCell>
        <mxCell id="3-bC4bgWkevKskhTeq14-98" value="&lt;font style=&quot;font-size: 9px;&quot;&gt;Booking Date&lt;/font&gt;" style="ellipse;whiteSpace=wrap;html=1;fillColor=#D4E1F5;" parent="1" vertex="1">
          <mxGeometry x="280" y="2093" width="80" height="50" as="geometry" />
        </mxCell>
        <mxCell id="3-bC4bgWkevKskhTeq14-100" style="rounded=0;orthogonalLoop=1;jettySize=auto;html=1;exitX=0.5;exitY=1;exitDx=0;exitDy=0;entryX=0.5;entryY=0;entryDx=0;entryDy=0;endArrow=none;endFill=0;fillColor=#eeeeee;strokeColor=#36393d;" parent="1" source="3-bC4bgWkevKskhTeq14-4" target="3-bC4bgWkevKskhTeq14-96" edge="1">
          <mxGeometry relative="1" as="geometry">
            <mxPoint x="-40" y="1991" as="sourcePoint" />
            <mxPoint x="95" y="2224" as="targetPoint" />
          </mxGeometry>
        </mxCell>
        <mxCell id="3-bC4bgWkevKskhTeq14-101" style="rounded=0;orthogonalLoop=1;jettySize=auto;html=1;entryX=0.5;entryY=0;entryDx=0;entryDy=0;endArrow=none;endFill=0;fillColor=#eeeeee;strokeColor=#36393d;exitX=0.5;exitY=1;exitDx=0;exitDy=0;" parent="1" source="3-bC4bgWkevKskhTeq14-4" target="3-bC4bgWkevKskhTeq14-97" edge="1">
          <mxGeometry relative="1" as="geometry">
            <mxPoint x="55" y="1941" as="sourcePoint" />
            <mxPoint x="155" y="2181" as="targetPoint" />
          </mxGeometry>
        </mxCell>
        <mxCell id="3-bC4bgWkevKskhTeq14-102" style="rounded=0;orthogonalLoop=1;jettySize=auto;html=1;entryX=0.5;entryY=0;entryDx=0;entryDy=0;endArrow=none;endFill=0;fillColor=#eeeeee;strokeColor=#36393d;exitX=0.5;exitY=1;exitDx=0;exitDy=0;" parent="1" source="3-bC4bgWkevKskhTeq14-4" target="3-bC4bgWkevKskhTeq14-98" edge="1">
          <mxGeometry relative="1" as="geometry">
            <mxPoint x="-40" y="1991" as="sourcePoint" />
            <mxPoint x="225" y="2146" as="targetPoint" />
          </mxGeometry>
        </mxCell>
        <mxCell id="3-bC4bgWkevKskhTeq14-104" value="Nationality" style="ellipse;whiteSpace=wrap;html=1;fillColor=#D4E1F5;" parent="1" vertex="1">
          <mxGeometry x="28" y="740" width="80" height="50" as="geometry" />
        </mxCell>
        <mxCell id="3-bC4bgWkevKskhTeq14-105" value="Phone" style="ellipse;whiteSpace=wrap;html=1;fillColor=#D4E1F5;" parent="1" vertex="1">
          <mxGeometry x="-52" y="760" width="80" height="50" as="geometry" />
        </mxCell>
        <mxCell id="3-bC4bgWkevKskhTeq14-106" value="Email" style="ellipse;whiteSpace=wrap;html=1;fillColor=#D4E1F5;" parent="1" vertex="1">
          <mxGeometry x="-132" y="780" width="80" height="50" as="geometry" />
        </mxCell>
        <mxCell id="3-bC4bgWkevKskhTeq14-107" value="Gender" style="ellipse;whiteSpace=wrap;html=1;fillColor=#D4E1F5;" parent="1" vertex="1">
          <mxGeometry x="-207" y="810" width="80" height="50" as="geometry" />
        </mxCell>
        <mxCell id="3-bC4bgWkevKskhTeq14-108" value="First Name" style="ellipse;whiteSpace=wrap;html=1;fillColor=#D4E1F5;" parent="1" vertex="1">
          <mxGeometry x="-332" y="885" width="80" height="50" as="geometry" />
        </mxCell>
        <mxCell id="3-bC4bgWkevKskhTeq14-109" value="Last Name" style="ellipse;whiteSpace=wrap;html=1;fillColor=#D4E1F5;" parent="1" vertex="1">
          <mxGeometry x="-277" y="840" width="80" height="50" as="geometry" />
        </mxCell>
        <mxCell id="3-bC4bgWkevKskhTeq14-110" style="rounded=0;orthogonalLoop=1;jettySize=auto;html=1;exitX=0.5;exitY=1;exitDx=0;exitDy=0;entryX=0.5;entryY=0;entryDx=0;entryDy=0;strokeWidth=1;endArrow=none;endFill=0;fillColor=#eeeeee;strokeColor=#36393d;" parent="1" target="3-bC4bgWkevKskhTeq14-42" edge="1">
          <mxGeometry relative="1" as="geometry">
            <mxPoint x="-12" y="810" as="sourcePoint" />
            <mxPoint x="63" y="1030" as="targetPoint" />
          </mxGeometry>
        </mxCell>
        <mxCell id="3-bC4bgWkevKskhTeq14-111" style="rounded=0;orthogonalLoop=1;jettySize=auto;html=1;exitX=0.5;exitY=1;exitDx=0;exitDy=0;entryX=0.5;entryY=0;entryDx=0;entryDy=0;strokeWidth=1;endArrow=none;endFill=0;fillColor=#eeeeee;strokeColor=#36393d;" parent="1" source="3-bC4bgWkevKskhTeq14-106" target="3-bC4bgWkevKskhTeq14-42" edge="1">
          <mxGeometry relative="1" as="geometry">
            <mxPoint x="-2" y="820" as="sourcePoint" />
            <mxPoint x="63" y="1030" as="targetPoint" />
          </mxGeometry>
        </mxCell>
        <mxCell id="3-bC4bgWkevKskhTeq14-112" style="rounded=0;orthogonalLoop=1;jettySize=auto;html=1;exitX=0.5;exitY=1;exitDx=0;exitDy=0;strokeWidth=1;endArrow=none;endFill=0;fillColor=#eeeeee;strokeColor=#36393d;entryX=0.5;entryY=0;entryDx=0;entryDy=0;" parent="1" source="3-bC4bgWkevKskhTeq14-107" target="3-bC4bgWkevKskhTeq14-42" edge="1">
          <mxGeometry relative="1" as="geometry">
            <mxPoint x="-82" y="840" as="sourcePoint" />
            <mxPoint x="-42" y="970" as="targetPoint" />
          </mxGeometry>
        </mxCell>
        <mxCell id="3-bC4bgWkevKskhTeq14-113" style="rounded=0;orthogonalLoop=1;jettySize=auto;html=1;exitX=0.5;exitY=1;exitDx=0;exitDy=0;strokeWidth=1;endArrow=none;endFill=0;fillColor=#eeeeee;strokeColor=#36393d;entryX=0.5;entryY=0;entryDx=0;entryDy=0;" parent="1" source="3-bC4bgWkevKskhTeq14-109" target="3-bC4bgWkevKskhTeq14-42" edge="1">
          <mxGeometry relative="1" as="geometry">
            <mxPoint x="-157" y="870" as="sourcePoint" />
            <mxPoint x="68" y="1130" as="targetPoint" />
          </mxGeometry>
        </mxCell>
        <mxCell id="3-bC4bgWkevKskhTeq14-114" style="rounded=0;orthogonalLoop=1;jettySize=auto;html=1;exitX=0.5;exitY=1;exitDx=0;exitDy=0;strokeWidth=1;endArrow=none;endFill=0;fillColor=#eeeeee;strokeColor=#36393d;entryX=0.5;entryY=0;entryDx=0;entryDy=0;" parent="1" source="3-bC4bgWkevKskhTeq14-108" target="3-bC4bgWkevKskhTeq14-42" edge="1">
          <mxGeometry relative="1" as="geometry">
            <mxPoint x="-227" y="900" as="sourcePoint" />
            <mxPoint x="63" y="1030" as="targetPoint" />
          </mxGeometry>
        </mxCell>
        <mxCell id="3-bC4bgWkevKskhTeq14-116" value="Longitude" style="ellipse;whiteSpace=wrap;html=1;fillColor=#D4E1F5;" parent="1" vertex="1">
          <mxGeometry x="1164" y="1620" width="80" height="50" as="geometry" />
        </mxCell>
        <mxCell id="3-bC4bgWkevKskhTeq14-117" style="rounded=0;orthogonalLoop=1;jettySize=auto;html=1;exitX=0.5;exitY=1;exitDx=0;exitDy=0;entryX=0.5;entryY=0;entryDx=0;entryDy=0;strokeWidth=1;endArrow=none;endFill=0;fillColor=#eeeeee;strokeColor=#36393d;" parent="1" source="3-bC4bgWkevKskhTeq14-120" target="3-bC4bgWkevKskhTeq14-16" edge="1">
          <mxGeometry relative="1" as="geometry">
            <mxPoint x="1069" y="1632.5" as="sourcePoint" />
            <mxPoint x="1069" y="1907.5" as="targetPoint" />
          </mxGeometry>
        </mxCell>
        <mxCell id="3-bC4bgWkevKskhTeq14-119" style="rounded=0;orthogonalLoop=1;jettySize=auto;html=1;exitX=0.5;exitY=1;exitDx=0;exitDy=0;entryX=0.5;entryY=0;entryDx=0;entryDy=0;strokeWidth=1;endArrow=none;endFill=0;fillColor=#eeeeee;strokeColor=#36393d;" parent="1" source="3-bC4bgWkevKskhTeq14-116" target="3-bC4bgWkevKskhTeq14-16" edge="1">
          <mxGeometry relative="1" as="geometry">
            <mxPoint x="1229" y="1722.5" as="sourcePoint" />
            <mxPoint x="1069" y="1907.5" as="targetPoint" />
          </mxGeometry>
        </mxCell>
        <mxCell id="3-bC4bgWkevKskhTeq14-120" value="Hotel Facilities" style="ellipse;whiteSpace=wrap;html=1;fillColor=#D4E1F5;" parent="1" vertex="1">
          <mxGeometry x="1084" y="1590" width="80" height="50" as="geometry" />
        </mxCell>
        <mxCell id="3-bC4bgWkevKskhTeq14-121" value="Latitude" style="ellipse;whiteSpace=wrap;html=1;fillColor=#D4E1F5;" parent="1" vertex="1">
          <mxGeometry x="1224" y="1670" width="80" height="50" as="geometry" />
        </mxCell>
        <mxCell id="3-bC4bgWkevKskhTeq14-122" style="rounded=0;orthogonalLoop=1;jettySize=auto;html=1;exitX=0.5;exitY=1;exitDx=0;exitDy=0;entryX=0.5;entryY=0;entryDx=0;entryDy=0;strokeWidth=1;endArrow=none;endFill=0;fillColor=#eeeeee;strokeColor=#36393d;" parent="1" source="3-bC4bgWkevKskhTeq14-121" target="3-bC4bgWkevKskhTeq14-16" edge="1">
          <mxGeometry relative="1" as="geometry">
            <mxPoint x="1259" y="1737.5" as="sourcePoint" />
            <mxPoint x="1069" y="1907.5" as="targetPoint" />
          </mxGeometry>
        </mxCell>
        <mxCell id="3-bC4bgWkevKskhTeq14-123" value="Hotel Name" style="ellipse;whiteSpace=wrap;html=1;fillColor=#D4E1F5;" parent="1" vertex="1">
          <mxGeometry x="1254" y="1720" width="80" height="50" as="geometry" />
        </mxCell>
        <mxCell id="3-bC4bgWkevKskhTeq14-124" style="rounded=0;orthogonalLoop=1;jettySize=auto;html=1;exitX=0.5;exitY=1;exitDx=0;exitDy=0;entryX=0.5;entryY=0;entryDx=0;entryDy=0;strokeWidth=1;endArrow=none;endFill=0;fillColor=#eeeeee;strokeColor=#36393d;" parent="1" source="3-bC4bgWkevKskhTeq14-123" target="3-bC4bgWkevKskhTeq14-16" edge="1">
          <mxGeometry relative="1" as="geometry">
            <mxPoint x="1319" y="1783.5" as="sourcePoint" />
            <mxPoint x="1069" y="1907.5" as="targetPoint" />
          </mxGeometry>
        </mxCell>
        <mxCell id="LD0xq1waeF9O6wsrQVDz-6" style="edgeStyle=orthogonalEdgeStyle;rounded=0;orthogonalLoop=1;jettySize=auto;html=1;exitX=0;exitY=0.5;exitDx=0;exitDy=0;entryX=1;entryY=0.5;entryDx=0;entryDy=0;" parent="1" source="LD0xq1waeF9O6wsrQVDz-1" target="3-bC4bgWkevKskhTeq14-54" edge="1">
          <mxGeometry relative="1" as="geometry" />
        </mxCell>
        <mxCell id="LD0xq1waeF9O6wsrQVDz-22" style="edgeStyle=orthogonalEdgeStyle;rounded=0;orthogonalLoop=1;jettySize=auto;html=1;exitX=1;exitY=0.5;exitDx=0;exitDy=0;entryX=1;entryY=0.5;entryDx=0;entryDy=0;" parent="1" source="LD0xq1waeF9O6wsrQVDz-1" target="3-bC4bgWkevKskhTeq14-16" edge="1">
          <mxGeometry relative="1" as="geometry" />
        </mxCell>
        <mxCell id="LD0xq1waeF9O6wsrQVDz-1" value="Has" style="shape=rhombus;perimeter=rhombusPerimeter;whiteSpace=wrap;html=1;align=center;fillColor=#B266FF;" parent="1" vertex="1">
          <mxGeometry x="1359" y="1112" width="120" height="60" as="geometry" />
        </mxCell>
        <mxCell id="LD0xq1waeF9O6wsrQVDz-9" style="edgeStyle=orthogonalEdgeStyle;rounded=0;orthogonalLoop=1;jettySize=auto;html=1;exitX=1;exitY=0.5;exitDx=0;exitDy=0;entryX=0;entryY=0.5;entryDx=0;entryDy=0;" parent="1" source="LD0xq1waeF9O6wsrQVDz-8" target="3-bC4bgWkevKskhTeq14-16" edge="1">
          <mxGeometry relative="1" as="geometry" />
        </mxCell>
        <mxCell id="LD0xq1waeF9O6wsrQVDz-12" style="edgeStyle=orthogonalEdgeStyle;rounded=0;orthogonalLoop=1;jettySize=auto;html=1;exitX=0;exitY=0.5;exitDx=0;exitDy=0;entryX=1;entryY=0.5;entryDx=0;entryDy=0;" parent="1" source="LD0xq1waeF9O6wsrQVDz-8" target="3-bC4bgWkevKskhTeq14-4" edge="1">
          <mxGeometry relative="1" as="geometry" />
        </mxCell>
        <mxCell id="LD0xq1waeF9O6wsrQVDz-8" value="Contain" style="shape=rhombus;perimeter=rhombusPerimeter;whiteSpace=wrap;html=1;align=center;fillColor=#B266FF;" parent="1" vertex="1">
          <mxGeometry x="440" y="1921" width="120" height="60" as="geometry" />
        </mxCell>
        <mxCell id="LD0xq1waeF9O6wsrQVDz-14" style="edgeStyle=orthogonalEdgeStyle;rounded=0;orthogonalLoop=1;jettySize=auto;html=1;exitX=0.5;exitY=0;exitDx=0;exitDy=0;entryX=0.5;entryY=1;entryDx=0;entryDy=0;" parent="1" source="LD0xq1waeF9O6wsrQVDz-13" target="3-bC4bgWkevKskhTeq14-42" edge="1">
          <mxGeometry relative="1" as="geometry" />
        </mxCell>
        <mxCell id="LD0xq1waeF9O6wsrQVDz-15" style="edgeStyle=orthogonalEdgeStyle;rounded=0;orthogonalLoop=1;jettySize=auto;html=1;exitX=0.5;exitY=1;exitDx=0;exitDy=0;entryX=1;entryY=0.25;entryDx=0;entryDy=0;" parent="1" source="LD0xq1waeF9O6wsrQVDz-13" target="3-bC4bgWkevKskhTeq14-4" edge="1">
          <mxGeometry relative="1" as="geometry" />
        </mxCell>
        <mxCell id="LD0xq1waeF9O6wsrQVDz-13" value="Book" style="shape=rhombus;perimeter=rhombusPerimeter;whiteSpace=wrap;html=1;align=center;fillColor=#B266FF;" parent="1" vertex="1">
          <mxGeometry x="40" y="1500" width="120" height="60" as="geometry" />
        </mxCell>
        <mxCell id="LD0xq1waeF9O6wsrQVDz-17" style="edgeStyle=orthogonalEdgeStyle;rounded=0;orthogonalLoop=1;jettySize=auto;html=1;exitX=0;exitY=0.5;exitDx=0;exitDy=0;entryX=0.5;entryY=1;entryDx=0;entryDy=0;" parent="1" source="LD0xq1waeF9O6wsrQVDz-16" target="3-bC4bgWkevKskhTeq14-30" edge="1">
          <mxGeometry relative="1" as="geometry" />
        </mxCell>
        <mxCell id="LD0xq1waeF9O6wsrQVDz-18" style="edgeStyle=orthogonalEdgeStyle;rounded=0;orthogonalLoop=1;jettySize=auto;html=1;exitX=1;exitY=0.5;exitDx=0;exitDy=0;entryX=0.25;entryY=0;entryDx=0;entryDy=0;" parent="1" source="LD0xq1waeF9O6wsrQVDz-16" target="3-bC4bgWkevKskhTeq14-4" edge="1">
          <mxGeometry relative="1" as="geometry" />
        </mxCell>
        <mxCell id="LD0xq1waeF9O6wsrQVDz-16" value="Contain" style="shape=rhombus;perimeter=rhombusPerimeter;whiteSpace=wrap;html=1;align=center;fillColor=#B266FF;" parent="1" vertex="1">
          <mxGeometry x="-401" y="1615" width="120" height="60" as="geometry" />
        </mxCell>
        <mxCell id="LD0xq1waeF9O6wsrQVDz-25" style="edgeStyle=orthogonalEdgeStyle;rounded=0;orthogonalLoop=1;jettySize=auto;html=1;exitX=1;exitY=0.5;exitDx=0;exitDy=0;entryX=0.5;entryY=0;entryDx=0;entryDy=0;" parent="1" source="LD0xq1waeF9O6wsrQVDz-24" target="3-bC4bgWkevKskhTeq14-54" edge="1">
          <mxGeometry relative="1" as="geometry" />
        </mxCell>
        <mxCell id="LD0xq1waeF9O6wsrQVDz-24" value="Has" style="shape=rhombus;perimeter=rhombusPerimeter;whiteSpace=wrap;html=1;align=center;fillColor=#B266FF;" parent="1" vertex="1">
          <mxGeometry x="460" y="645" width="120" height="60" as="geometry" />
        </mxCell>
        <mxCell id="LD0xq1waeF9O6wsrQVDz-27" style="edgeStyle=orthogonalEdgeStyle;rounded=0;orthogonalLoop=1;jettySize=auto;html=1;exitX=1;exitY=0.5;exitDx=0;exitDy=0;entryX=0;entryY=0.5;entryDx=0;entryDy=0;" parent="1" source="LD0xq1waeF9O6wsrQVDz-26" target="3-bC4bgWkevKskhTeq14-54" edge="1">
          <mxGeometry relative="1" as="geometry" />
        </mxCell>
        <mxCell id="LD0xq1waeF9O6wsrQVDz-28" style="edgeStyle=orthogonalEdgeStyle;rounded=0;orthogonalLoop=1;jettySize=auto;html=1;exitX=0;exitY=0.5;exitDx=0;exitDy=0;entryX=1;entryY=0.5;entryDx=0;entryDy=0;" parent="1" source="LD0xq1waeF9O6wsrQVDz-26" target="3-bC4bgWkevKskhTeq14-42" edge="1">
          <mxGeometry relative="1" as="geometry" />
        </mxCell>
        <mxCell id="LD0xq1waeF9O6wsrQVDz-26" value="Give" style="shape=rhombus;perimeter=rhombusPerimeter;whiteSpace=wrap;html=1;align=center;fillColor=#B266FF;" parent="1" vertex="1">
          <mxGeometry x="424" y="1111" width="120" height="60" as="geometry" />
        </mxCell>
        <mxCell id="LD0xq1waeF9O6wsrQVDz-29" value="" style="endArrow=none;html=1;rounded=0;entryX=0;entryY=0;entryDx=0;entryDy=0;" parent="1" target="LD0xq1waeF9O6wsrQVDz-30" edge="1">
          <mxGeometry relative="1" as="geometry">
            <mxPoint x="-60" y="1981" as="sourcePoint" />
            <mxPoint x="305" y="2016" as="targetPoint" />
          </mxGeometry>
        </mxCell>
        <mxCell id="LD0xq1waeF9O6wsrQVDz-30" value="Hotel_ID" style="ellipse;whiteSpace=wrap;html=1;align=center;fillColor=#D4E1F5;" parent="1" vertex="1">
          <mxGeometry x="305" y="1996" width="100" height="40" as="geometry" />
        </mxCell>
        <mxCell id="LD0xq1waeF9O6wsrQVDz-35" value="" style="endArrow=none;html=1;rounded=0;entryX=0.5;entryY=1;entryDx=0;entryDy=0;exitX=1;exitY=0;exitDx=0;exitDy=0;" parent="1" source="LD0xq1waeF9O6wsrQVDz-36" target="3-bC4bgWkevKskhTeq14-4" edge="1">
          <mxGeometry relative="1" as="geometry">
            <mxPoint x="-410" y="2100" as="sourcePoint" />
            <mxPoint x="-265" y="2074.29" as="targetPoint" />
          </mxGeometry>
        </mxCell>
        <mxCell id="LD0xq1waeF9O6wsrQVDz-36" value="Room_ID" style="ellipse;whiteSpace=wrap;html=1;align=center;fillColor=#D4E1F5;" parent="1" vertex="1">
          <mxGeometry x="-446" y="2100" width="100" height="40" as="geometry" />
        </mxCell>
        <mxCell id="LD0xq1waeF9O6wsrQVDz-39" value="Guest_ID" style="ellipse;whiteSpace=wrap;html=1;align=center;fillColor=#D4E1F5;" parent="1" vertex="1">
          <mxGeometry x="-485" y="2060" width="100" height="40" as="geometry" />
        </mxCell>
        <mxCell id="LD0xq1waeF9O6wsrQVDz-40" value="" style="endArrow=none;html=1;rounded=0;entryX=0.5;entryY=1;entryDx=0;entryDy=0;exitX=1;exitY=0;exitDx=0;exitDy=0;" parent="1" source="LD0xq1waeF9O6wsrQVDz-39" target="3-bC4bgWkevKskhTeq14-4" edge="1">
          <mxGeometry relative="1" as="geometry">
            <mxPoint x="-530" y="2150" as="sourcePoint" />
            <mxPoint x="-370" y="2150" as="targetPoint" />
          </mxGeometry>
        </mxCell>
        <mxCell id="0ko-scHGfttd13zjOE6n-3" value="" style="endArrow=none;html=1;rounded=0;exitX=0.5;exitY=1;exitDx=0;exitDy=0;entryX=0;entryY=0;entryDx=0;entryDy=0;" parent="1" source="3-bC4bgWkevKskhTeq14-54" target="cxOeONrtaHCp_F4Onndq-1" edge="1">
          <mxGeometry relative="1" as="geometry">
            <mxPoint x="1038" y="1176.29" as="sourcePoint" />
            <mxPoint x="1193.266561700324" y="1267.0626183821491" as="targetPoint" />
          </mxGeometry>
        </mxCell>
        <mxCell id="0ko-scHGfttd13zjOE6n-7" value="Spa Package Included" style="ellipse;whiteSpace=wrap;html=1;align=center;fillColor=#D4E1F5;" parent="1" vertex="1">
          <mxGeometry x="200" y="2143" width="132" height="40" as="geometry" />
        </mxCell>
        <mxCell id="0ko-scHGfttd13zjOE6n-8" value="Breakfast Included" style="ellipse;whiteSpace=wrap;html=1;align=center;fillColor=#D4E1F5;" parent="1" vertex="1">
          <mxGeometry x="88" y="2224" width="100" height="40" as="geometry" />
        </mxCell>
        <mxCell id="0ko-scHGfttd13zjOE6n-9" value="Airport&amp;nbsp;Pickup Included" style="ellipse;whiteSpace=wrap;html=1;align=center;fillColor=#D4E1F5;" parent="1" vertex="1">
          <mxGeometry x="300" y="2046" width="100" height="40" as="geometry" />
        </mxCell>
        <mxCell id="0ko-scHGfttd13zjOE6n-10" value="" style="endArrow=none;html=1;rounded=0;exitX=0.5;exitY=1;exitDx=0;exitDy=0;entryX=0;entryY=0;entryDx=0;entryDy=0;" parent="1" source="3-bC4bgWkevKskhTeq14-4" target="0ko-scHGfttd13zjOE6n-9" edge="1">
          <mxGeometry relative="1" as="geometry">
            <mxPoint x="10" y="2180" as="sourcePoint" />
            <mxPoint x="170" y="2180" as="targetPoint" />
          </mxGeometry>
        </mxCell>
        <mxCell id="0ko-scHGfttd13zjOE6n-11" value="" style="endArrow=none;html=1;rounded=0;exitX=0.5;exitY=1;exitDx=0;exitDy=0;entryX=0;entryY=0;entryDx=0;entryDy=0;" parent="1" source="3-bC4bgWkevKskhTeq14-4" target="0ko-scHGfttd13zjOE6n-7" edge="1">
          <mxGeometry relative="1" as="geometry">
            <mxPoint x="10" y="2180" as="sourcePoint" />
            <mxPoint x="170" y="2180" as="targetPoint" />
          </mxGeometry>
        </mxCell>
        <mxCell id="0ko-scHGfttd13zjOE6n-12" value="" style="endArrow=none;html=1;rounded=0;exitX=0.5;exitY=1;exitDx=0;exitDy=0;entryX=0;entryY=0;entryDx=0;entryDy=0;" parent="1" source="3-bC4bgWkevKskhTeq14-4" target="0ko-scHGfttd13zjOE6n-8" edge="1">
          <mxGeometry relative="1" as="geometry">
            <mxPoint x="10" y="2180" as="sourcePoint" />
            <mxPoint x="170" y="2180" as="targetPoint" />
          </mxGeometry>
        </mxCell>
        <mxCell id="0ko-scHGfttd13zjOE6n-14" value="Type_Of_Traveler" style="ellipse;whiteSpace=wrap;html=1;align=center;fillColor=#D4E1F5;" parent="1" vertex="1">
          <mxGeometry x="1199" y="1212" width="100" height="40" as="geometry" />
        </mxCell>
        <mxCell id="0ko-scHGfttd13zjOE6n-15" value="" style="endArrow=none;html=1;rounded=0;exitX=0.5;exitY=1;exitDx=0;exitDy=0;entryX=0;entryY=0.5;entryDx=0;entryDy=0;" parent="1" source="3-bC4bgWkevKskhTeq14-54" target="0ko-scHGfttd13zjOE6n-14" edge="1">
          <mxGeometry relative="1" as="geometry">
            <mxPoint x="1080" y="1185" as="sourcePoint" />
            <mxPoint x="1240" y="1185" as="targetPoint" />
          </mxGeometry>
        </mxCell>
        <mxCell id="0ko-scHGfttd13zjOE6n-16" value="Stayed_Period" style="ellipse;whiteSpace=wrap;html=1;align=center;fillColor=#D4E1F5;" parent="1" vertex="1">
          <mxGeometry x="1199" y="1167" width="100" height="40" as="geometry" />
        </mxCell>
        <mxCell id="0ko-scHGfttd13zjOE6n-17" value="" style="endArrow=none;html=1;rounded=0;exitX=0.5;exitY=1;exitDx=0;exitDy=0;entryX=0;entryY=0.5;entryDx=0;entryDy=0;" parent="1" source="3-bC4bgWkevKskhTeq14-54" target="0ko-scHGfttd13zjOE6n-16" edge="1">
          <mxGeometry relative="1" as="geometry">
            <mxPoint x="1040" y="1175" as="sourcePoint" />
            <mxPoint x="1200" y="1175" as="targetPoint" />
          </mxGeometry>
        </mxCell>
        <mxCell id="cxOeONrtaHCp_F4Onndq-1" value="&lt;span style=&quot;text-decoration-line: underline;&quot;&gt;Review_ID&lt;/span&gt;" style="ellipse;whiteSpace=wrap;html=1;fillColor=#CC99FF;strokeColor=#6c8ebf;gradientColor=#7ea6e0;" vertex="1" parent="1">
          <mxGeometry x="1195" y="1257" width="80" height="50" as="geometry" />
        </mxCell>
      </root>
    </mxGraphModel>
  </diagram>
</mxfile>
